<?xml version="1.0" encoding="UTF-8"?>
<svg xmlns="http://www.w3.org/2000/svg" xmlns:xlink="http://www.w3.org/1999/xlink" width="433pt" height="433pt" viewBox="0 0 433 433" version="1.1">
<g id="surface1">
<path style=" stroke:none;fill-rule:evenodd;fill:rgb(100%,100%,100%);fill-opacity:1;" d="M 216.597656 28.023438 C 112.542969 28.023438 28.179688 112.386719 28.179688 216.441406 C 28.179688 320.496094 112.542969 404.859375 216.597656 404.859375 C 320.65625 404.859375 405.015625 320.496094 405.015625 216.441406 C 405.015625 112.386719 320.65625 28.027344 216.597656 28.023438 "/>
<path style=" stroke:none;fill-rule:evenodd;fill:rgb(52.89917%,59.599304%,24.699402%);fill-opacity:1;" d="M 216.304688 32.453125 C 114.800781 32.453125 32.511719 114.738281 32.511719 216.261719 C 32.511719 317.765625 114.800781 400.050781 216.304688 400.050781 C 317.820313 400.050781 400.109375 317.765625 400.109375 216.261719 C 400.109375 114.738281 317.820313 32.453125 216.304688 32.453125 Z M 0.320313 216.261719 C 0.320313 96.972656 97.015625 0.277344 216.304688 0.277344 C 335.589844 0.277344 432.285156 96.972656 432.285156 216.261719 C 432.285156 335.535156 335.589844 432.242188 216.304688 432.242188 C 97.015625 432.242188 0.320313 335.535156 0.320313 216.261719 Z M 74.355469 154.148438 C 98.25 99.675781 152.9375 61.453125 216.304688 61.453125 C 249.433594 61.453125 280.128906 71.859375 305.289063 89.5625 C 345.109375 117.574219 371.109375 163.878906 371.109375 216.261719 C 371.109375 243.53125 364.0625 269.136719 351.695313 291.382813 C 310 295.335938 269.835938 279.3125 249.46875 256.722656 C 302.738281 220.492188 317.296875 154.410156 306.9375 90.746094 C 243.769531 107.363281 187.007813 148.746094 177.390625 217.265625 C 154.253906 183.242188 117.171875 159.464844 74.355469 154.148438 Z M 281.363281 130.121094 C 284.59375 183.6875 253.894531 225.925781 206.867188 248.914063 C 234.203125 293.261719 277.707031 318.488281 330.648438 320.628906 C 302.34375 351.621094 261.585938 371.070313 216.304688 371.070313 C 211.972656 371.070313 207.691406 370.886719 203.460938 370.542969 L 203.492188 246.988281 C 203.492188 196.714844 231.121094 148.960938 281.363281 130.121094 Z M 173.683594 365.125 C 108.921875 346.617188 61.496094 286.972656 61.496094 216.261719 C 61.496094 204.632813 62.78125 193.320313 65.199219 182.4375 L 65.808594 182.503906 C 126.324219 188.214844 173.667969 237.207031 173.667969 301.710938 L 173.683594 365.125 "/>
</g>
</svg>
